<?xml version="1.0" standalone="no"?>
<!DOCTYPE svg PUBLIC "-//W3C//DTD SVG 20010904//EN"
 "http://www.w3.org/TR/2001/REC-SVG-20010904/DTD/svg10.dtd">
<svg version="1.0" xmlns="http://www.w3.org/2000/svg"
 width="512.000000pt" height="512.000000pt" viewBox="0 0 512.000000 512.000000"
 preserveAspectRatio="xMidYMid meet">

<g transform="translate(0.000000,512.000000) scale(0.100000,-0.100000)"
fill="#ffffff" stroke="none">
<path d="M2360 5109 c-348 -39 -696 -191 -968 -422 -551 -467 -768 -1239 -541
-1929 67 -206 127 -306 928 -1548 424 -657 776 -1195 781 -1195 5 0 357 538
781 1195 803 1246 861 1343 929 1550 163 501 97 1054 -180 1505 -246 402 -674
708 -1130 809 -202 44 -411 56 -600 35z m491 -318 c256 -52 506 -175 693 -343
257 -228 415 -501 488 -842 31 -145 31 -427 0 -571 -32 -148 -69 -257 -132
-380 -48 -96 -1327 -2095 -1340 -2095 -3 0 -295 450 -650 1000 -394 611 -665
1042 -697 1106 -59 122 -94 227 -125 369 -31 146 -31 426 1 575 80 373 279
689 576 911 216 162 436 248 750 293 70 10 344 -4 436 -23z"/>
<path d="M2396 4205 c-351 -73 -615 -319 -707 -660 -32 -115 -32 -335 0 -450
150 -551 757 -830 1266 -580 292 143 483 432 502 760 24 420 -262 809 -672
916 -104 27 -293 34 -389 14z m308 -305 c113 -29 190 -73 277 -160 238 -236
238 -603 0 -840 -240 -239 -602 -239 -842 0 -190 189 -232 465 -107 703 42 81
164 203 245 245 133 70 286 88 427 52z"/>
</g>
</svg>
