<svg xmlns="http://www.w3.org/2000/svg" xmlns:xlink="http://www.w3.org/1999/xlink" width="500" zoomAndPan="magnify" viewBox="0 0 375 374.999991" height="500" preserveAspectRatio="xMidYMid meet" version="1.0"><defs><g/><clipPath id="f9b8f0ee30"><path d="M 107.445312 98.570312 L 267.195312 98.570312 L 267.195312 163 L 107.445312 163 Z M 107.445312 98.570312 " clip-rule="nonzero"/></clipPath><clipPath id="369cff9d57"><path d="M 141 144.300781 L 234 144.300781 L 234 208.050781 L 141 208.050781 Z M 141 144.300781 " clip-rule="nonzero"/></clipPath></defs><rect x="-37.5" width="450" fill="#ffffff" y="-37.499999" height="449.999989" fill-opacity="1"/><rect x="-37.5" width="450" fill="#ffffff" y="-37.499999" height="449.999989" fill-opacity="1"/><rect x="-37.5" width="450" fill="#000000" y="-37.499999" height="449.999989" fill-opacity="1"/><g clip-path="url(#f9b8f0ee30)"><path fill="#ffffff" d="M 141.226562 149.484375 C 137.199219 150.789062 133.3125 152.429688 129.570312 154.410156 C 129.507812 154.441406 129.445312 154.441406 129.378906 154.417969 C 129.308594 154.394531 129.257812 154.347656 129.222656 154.28125 C 126.550781 149.375 124.199219 144.320312 122.171875 139.113281 C 122.148438 139.046875 122.105469 139 122.042969 138.972656 C 119.972656 138.066406 117.871094 137.207031 115.734375 136.394531 C 115.617188 136.351562 115.515625 136.378906 115.433594 136.472656 C 112.621094 139.332031 109.988281 142.34375 107.535156 145.515625 C 107.457031 145.613281 107.429688 145.722656 107.453125 145.84375 C 107.476562 145.957031 107.546875 146.035156 107.660156 146.074219 C 112.433594 147.300781 117.125 148.78125 121.738281 150.515625 C 124.078125 154.746094 126.640625 158.835938 129.429688 162.785156 C 129.496094 162.875 129.585938 162.925781 129.695312 162.9375 C 129.796875 162.957031 129.878906 162.929688 129.941406 162.847656 C 133.457031 158.304688 137.453125 154.230469 141.929688 150.628906 C 142.039062 150.523438 142.097656 150.398438 142.109375 150.246094 C 142.125 150.097656 142.085938 149.960938 141.992188 149.839844 C 141.921875 149.703125 141.8125 149.597656 141.667969 149.53125 C 141.527344 149.46875 141.378906 149.449219 141.226562 149.484375 Z M 267.109375 145.515625 C 264.652344 142.347656 262.019531 139.332031 259.207031 136.46875 C 259.121094 136.378906 259.023438 136.351562 258.90625 136.394531 C 256.769531 137.207031 254.664062 138.066406 252.597656 138.972656 C 252.53125 139 252.488281 139.046875 252.464844 139.113281 C 250.4375 144.320312 248.089844 149.375 245.417969 154.28125 C 245.382812 154.347656 245.328125 154.394531 245.257812 154.417969 C 245.195312 154.441406 245.128906 154.441406 245.066406 154.410156 C 241.324219 152.429688 237.441406 150.789062 233.414062 149.484375 C 233.257812 149.449219 233.109375 149.464844 232.96875 149.53125 C 232.824219 149.59375 232.714844 149.699219 232.644531 149.835938 C 232.550781 149.957031 232.511719 150.09375 232.523438 150.242188 C 232.535156 150.394531 232.597656 150.519531 232.707031 150.625 C 237.183594 154.226562 241.179688 158.300781 244.695312 162.847656 C 244.761719 162.925781 244.84375 162.953125 244.941406 162.933594 C 245.050781 162.921875 245.140625 162.871094 245.207031 162.78125 C 247.996094 158.832031 250.5625 154.742188 252.902344 150.511719 C 257.511719 148.777344 262.203125 147.296875 266.976562 146.070312 C 267.089844 146.03125 267.160156 145.953125 267.183594 145.839844 C 267.210938 145.71875 267.183594 145.613281 267.109375 145.515625 Z M 244.945312 151.042969 C 245.175781 150.988281 245.34375 150.855469 245.445312 150.644531 C 247.53125 146.398438 249.382812 142.054688 250.996094 137.605469 C 255.375 135.566406 259.847656 133.769531 264.417969 132.203125 C 264.664062 132.125 264.796875 131.960938 264.816406 131.703125 C 264.839844 131.433594 264.753906 131.203125 264.558594 131.015625 C 263.300781 129.738281 262.015625 128.496094 260.695312 127.28125 C 259.378906 126.070312 258.03125 124.890625 256.652344 123.742188 C 255.277344 122.597656 253.871094 121.488281 252.4375 120.410156 C 251.007812 119.335938 249.550781 118.296875 248.066406 117.292969 C 246.582031 116.289062 245.074219 115.320312 243.542969 114.390625 C 242.011719 113.460938 240.457031 112.570312 238.882812 111.71875 C 237.304688 110.867188 235.710938 110.054688 234.09375 109.28125 C 232.476562 108.507812 230.84375 107.777344 229.191406 107.085938 C 227.539062 106.394531 225.871094 105.742188 224.183594 105.132812 C 222.5 104.523438 220.800781 103.957031 219.089844 103.429688 C 217.375 102.90625 215.648438 102.425781 213.914062 101.984375 C 212.175781 101.546875 210.429688 101.148438 208.671875 100.796875 C 206.917969 100.441406 205.152344 100.132812 203.382812 99.867188 C 201.609375 99.601562 199.832031 99.382812 198.050781 99.203125 C 196.265625 99.027344 194.480469 98.894531 192.691406 98.804688 C 190.902344 98.714844 189.109375 98.671875 187.320312 98.671875 C 185.527344 98.671875 183.738281 98.714844 181.949219 98.804688 C 180.160156 98.894531 178.371094 99.027344 176.589844 99.203125 C 174.808594 99.382812 173.03125 99.601562 171.257812 99.867188 C 169.484375 100.132812 167.722656 100.441406 165.964844 100.796875 C 164.207031 101.148438 162.460938 101.546875 160.726562 101.984375 C 158.988281 102.425781 157.261719 102.90625 155.550781 103.429688 C 153.835938 103.957031 152.140625 104.523438 150.453125 105.132812 C 148.769531 105.742188 147.101562 106.394531 145.449219 107.085938 C 143.796875 107.777344 142.160156 108.507812 140.546875 109.28125 C 138.929688 110.054688 137.332031 110.867188 135.757812 111.71875 C 134.179688 112.570312 132.628906 113.460938 131.097656 114.390625 C 129.566406 115.320312 128.058594 116.289062 126.574219 117.292969 C 125.089844 118.296875 123.632812 119.335938 122.199219 120.410156 C 120.765625 121.488281 119.363281 122.597656 117.984375 123.742188 C 116.609375 124.890625 115.261719 126.070312 113.941406 127.28125 C 112.625 128.496094 111.335938 129.738281 110.078125 131.015625 C 109.882812 131.203125 109.796875 131.433594 109.820312 131.707031 C 109.84375 131.964844 109.972656 132.128906 110.21875 132.207031 C 114.789062 133.769531 119.261719 135.570312 123.640625 137.609375 C 125.257812 142.054688 127.105469 146.402344 129.191406 150.648438 C 129.292969 150.859375 129.460938 150.992188 129.691406 151.046875 C 129.90625 151.105469 130.09375 151.058594 130.253906 150.898438 C 131.183594 149.953125 132.132812 149.035156 133.109375 148.136719 C 134.082031 147.242188 135.078125 146.371094 136.09375 145.523438 C 137.109375 144.675781 138.148438 143.855469 139.207031 143.058594 C 140.265625 142.265625 141.339844 141.496094 142.4375 140.753906 C 143.535156 140.011719 144.648438 139.296875 145.777344 138.609375 C 146.910156 137.921875 148.058594 137.265625 149.222656 136.636719 C 150.386719 136.003906 151.566406 135.40625 152.761719 134.832031 C 153.953125 134.261719 155.160156 133.722656 156.382812 133.210938 C 157.601562 132.699219 158.835938 132.21875 160.082031 131.765625 C 161.324219 131.316406 162.582031 130.898438 163.847656 130.511719 C 165.113281 130.121094 166.386719 129.765625 167.667969 129.441406 C 168.953125 129.117188 170.242188 128.824219 171.539062 128.5625 C 172.839844 128.300781 174.140625 128.074219 175.449219 127.875 C 176.761719 127.679688 178.074219 127.515625 179.390625 127.386719 C 180.707031 127.253906 182.027344 127.15625 183.347656 127.089844 C 184.671875 127.023438 185.996094 126.992188 187.316406 126.992188 C 188.640625 126.992188 189.964844 127.023438 191.285156 127.089844 C 192.609375 127.15625 193.929688 127.253906 195.246094 127.386719 C 196.5625 127.515625 197.875 127.679688 199.183594 127.875 C 200.496094 128.074219 201.796875 128.300781 203.09375 128.5625 C 204.394531 128.824219 205.683594 129.117188 206.96875 129.441406 C 208.25 129.765625 209.523438 130.121094 210.789062 130.511719 C 212.054688 130.898438 213.3125 131.316406 214.554688 131.765625 C 215.800781 132.21875 217.03125 132.699219 218.253906 133.210938 C 219.476562 133.722656 220.683594 134.261719 221.875 134.832031 C 223.070312 135.40625 224.25 136.003906 225.414062 136.636719 C 226.578125 137.265625 227.726562 137.921875 228.855469 138.609375 C 229.988281 139.296875 231.101562 140.011719 232.199219 140.753906 C 233.292969 141.496094 234.371094 142.265625 235.429688 143.058594 C 236.488281 143.855469 237.523438 144.675781 238.542969 145.523438 C 239.558594 146.371094 240.554688 147.242188 241.527344 148.136719 C 242.503906 149.035156 243.453125 149.953125 244.382812 150.898438 C 244.542969 151.054688 244.730469 151.105469 244.945312 151.042969 Z M 244.945312 151.042969 " fill-opacity="1" fill-rule="evenodd"/></g><g clip-path="url(#369cff9d57)"><path fill="#ffffff" d="M 233.648438 207.261719 C 226.800781 206.664062 219.882812 206.207031 212.9375 205.875 C 213.332031 205.601562 213.535156 205.222656 213.542969 204.742188 C 213.519531 204.03125 213.738281 203.410156 214.210938 202.875 C 214.410156 203.160156 214.683594 203.351562 215.019531 203.453125 C 215.039062 203.457031 215.058594 203.453125 215.074219 203.4375 C 215.089844 203.421875 215.09375 203.402344 215.085938 203.378906 C 214.890625 202.777344 214.800781 202.160156 214.816406 201.527344 C 214.816406 201.492188 214.832031 201.46875 214.863281 201.453125 C 214.894531 201.4375 214.925781 201.441406 214.949219 201.464844 C 215.152344 201.605469 215.375 201.6875 215.621094 201.707031 C 215.640625 201.710938 215.660156 201.703125 215.671875 201.683594 C 215.683594 201.667969 215.683594 201.648438 215.675781 201.628906 C 214.933594 200.128906 217.414062 194.925781 218.203125 191.273438 C 218.273438 190.933594 218.253906 190.601562 218.140625 190.273438 C 218.027344 189.945312 217.839844 189.667969 217.570312 189.445312 C 215.328125 187.570312 212.605469 183.925781 212.789062 181.390625 C 212.996094 178.480469 214.484375 174.390625 211.640625 169.378906 C 212.21875 169.636719 212.722656 170.003906 213.144531 170.476562 C 213.566406 170.949219 213.875 171.488281 214.070312 172.089844 C 215.441406 171.226562 215.148438 168.859375 212.347656 166.003906 L 210.917969 164.144531 C 210.375 163.441406 209.6875 162.9375 208.855469 162.632812 C 205.925781 161.53125 202.921875 160.6875 199.847656 160.109375 C 195.621094 159.886719 191.90625 160.007812 190.101562 160.417969 C 188.300781 160.824219 179.535156 162.589844 177.613281 162.53125 C 177.242188 162.273438 176.914062 161.976562 176.621094 161.636719 C 174.824219 163.789062 173.34375 166.136719 172.183594 168.683594 C 172.171875 168.707031 172.15625 168.714844 172.132812 168.707031 C 172.109375 168.699219 172.097656 168.683594 172.101562 168.660156 C 172.574219 165.792969 174.789062 161.367188 176.347656 159.644531 C 174.980469 160.152344 173.6875 160.816406 172.476562 161.636719 C 172.453125 161.652344 172.425781 161.652344 172.402344 161.628906 C 172.378906 161.609375 172.378906 161.582031 172.394531 161.558594 C 174 158.796875 176.058594 158.316406 178.109375 158.046875 C 179.015625 158.089844 179.910156 158.210938 180.792969 158.414062 C 181.144531 158.5 181.453125 158.425781 181.730469 158.195312 C 182.015625 157.976562 182.234375 157.703125 182.390625 157.378906 C 181.59375 157.488281 180.847656 157.347656 180.144531 156.957031 C 179.550781 156.625 178.910156 156.464844 178.226562 156.46875 C 178.195312 156.476562 178.171875 156.464844 178.15625 156.4375 C 178.144531 156.410156 178.148438 156.386719 178.167969 156.363281 C 178.328125 156.171875 178.53125 156.046875 178.777344 155.992188 C 179.023438 155.933594 179.261719 155.960938 179.492188 156.066406 C 180.453125 156.445312 181.445312 156.664062 182.476562 156.714844 C 183.09375 156.546875 183.566406 156.1875 183.890625 155.636719 C 184.046875 155.289062 183.453125 154.578125 183.378906 154.1875 C 183.351562 153.886719 183.296875 153.59375 183.210938 153.300781 C 183.101562 153.039062 179.265625 150.25 178.484375 149.269531 C 178.390625 148.492188 178.144531 147.820312 176.761719 147.050781 C 176.742188 147.039062 176.738281 147.023438 176.742188 147.003906 C 176.746094 146.984375 176.757812 146.972656 176.78125 146.972656 C 177.40625 146.925781 177.984375 147.066406 178.515625 147.402344 C 179.042969 147.007812 179.484375 146.535156 179.839844 145.980469 C 179.890625 145.894531 179.886719 145.808594 179.828125 145.726562 C 179.765625 145.648438 179.683594 145.621094 179.585938 145.648438 C 178.28125 146.039062 176.945312 146.273438 175.582031 146.34375 C 174.875 145.777344 174.507812 145.519531 173.648438 145.714844 C 172.359375 145.21875 171.066406 145.203125 169.765625 145.671875 C 168.25 145.308594 163.363281 144.265625 162.714844 144.324219 C 162.0625 144.378906 161.878906 144.492188 161.78125 144.769531 C 161.6875 145.042969 162.113281 145.535156 162.371094 146.273438 C 162.621094 146.992188 165.214844 150.28125 167.890625 151.234375 C 167.921875 151.246094 167.9375 151.269531 167.9375 151.304688 C 167.933594 151.339844 167.917969 151.359375 167.886719 151.367188 C 167.304688 151.472656 166.726562 151.480469 166.144531 151.390625 C 165.074219 154.46875 162.800781 164.699219 162.984375 166.40625 C 163.171875 168.113281 165.480469 177.898438 166.410156 178.890625 C 167.339844 179.878906 170.59375 181.882812 173.320312 182.613281 C 172.410156 181.59375 171.777344 180.429688 171.414062 179.113281 C 171.402344 179.078125 171.414062 179.050781 171.445312 179.03125 C 171.480469 179.011719 171.507812 179.015625 171.535156 179.042969 C 172.363281 179.832031 173.25 180.558594 174.191406 181.210938 C 174.386719 182.765625 174.449219 187.3125 175.664062 189.707031 L 175.175781 190.886719 C 174.957031 191.414062 174.929688 191.949219 175.097656 192.492188 C 175.742188 194.636719 176.15625 198.300781 175.617188 200.097656 C 175.277344 200.828125 174.839844 201.496094 174.304688 202.101562 C 174.089844 202.34375 173.972656 202.625 173.941406 202.945312 C 173.871094 203.726562 173.753906 204.765625 173.675781 205.441406 C 162.828125 205.722656 152 206.324219 141.347656 207.253906 C 141.242188 207.257812 141.152344 207.300781 141.082031 207.378906 C 141.011719 207.457031 140.980469 207.546875 140.984375 207.652344 C 140.988281 207.753906 141.03125 207.84375 141.105469 207.914062 C 141.183594 207.984375 141.273438 208.019531 141.378906 208.011719 L 233.613281 208.011719 C 233.71875 208.019531 233.808594 207.984375 233.886719 207.914062 C 233.964844 207.84375 234.003906 207.753906 234.011719 207.648438 C 234.015625 207.546875 233.980469 207.453125 233.910156 207.375 C 233.839844 207.300781 233.75 207.257812 233.644531 207.253906 Z M 181.867188 153.460938 C 182.304688 153.253906 182.664062 153.636719 182.796875 154.398438 C 182.796875 154.414062 182.792969 154.425781 182.777344 154.433594 C 182.765625 154.441406 182.75 154.4375 182.738281 154.425781 C 182.523438 154.285156 182.292969 154.167969 182.054688 154.070312 C 181.851562 153.941406 181.605469 153.585938 181.867188 153.460938 Z M 172.210938 150.578125 C 172.839844 150.492188 173.972656 149.933594 174.785156 149.992188 C 175.085938 150.011719 175.34375 150.121094 175.558594 150.332031 C 175.777344 150.539062 175.898438 150.792969 175.921875 151.09375 C 176.335938 151.257812 176.363281 151.414062 176.257812 151.503906 C 176.15625 151.59375 175.738281 151.503906 175.597656 151.339844 C 174.964844 151.507812 174.714844 152.066406 173.871094 152.003906 C 173.027344 151.945312 172.714844 150.8125 172.714844 150.8125 C 172.527344 150.8125 172.355469 150.765625 172.195312 150.671875 C 172.171875 150.660156 172.164062 150.640625 172.167969 150.617188 C 172.175781 150.59375 172.1875 150.582031 172.214844 150.578125 Z M 163.355469 145.882812 C 163.347656 145.863281 163.351562 145.847656 163.367188 145.832031 C 163.382812 145.816406 163.398438 145.8125 163.417969 145.820312 C 165.597656 146.550781 167.828125 148.734375 168.335938 150.667969 C 166.351562 149.847656 163.945312 147.464844 163.355469 145.882812 Z M 210.953125 200.949219 C 210.648438 201.617188 210.191406 202.160156 209.585938 202.574219 C 209.308594 202.78125 209.125 203.054688 209.046875 203.394531 C 208.886719 204.054688 208.621094 204.972656 208.445312 205.566406 C 208.4375 205.601562 208.4375 205.640625 208.4375 205.679688 C 206.609375 205.609375 204.78125 205.546875 202.949219 205.492188 C 203.101562 205.265625 203.179688 205.015625 203.183594 204.742188 C 203.160156 204.03125 203.378906 203.40625 203.847656 202.875 C 204.039062 203.144531 204.292969 203.332031 204.609375 203.429688 C 204.640625 203.441406 204.667969 203.433594 204.691406 203.410156 C 204.714844 203.386719 204.722656 203.359375 204.710938 203.328125 C 204.527344 202.738281 204.445312 202.132812 204.460938 201.519531 C 204.460938 201.484375 204.472656 201.460938 204.503906 201.445312 C 204.53125 201.429688 204.558594 201.433594 204.585938 201.453125 C 204.773438 201.589844 204.984375 201.667969 205.214844 201.695312 C 205.246094 201.699219 205.269531 201.691406 205.289062 201.664062 C 205.308594 201.636719 205.3125 201.609375 205.296875 201.582031 C 204.644531 200.214844 207.320312 196.058594 207.640625 192.613281 C 204.578125 191.039062 202.054688 188.84375 200.074219 186.027344 C 198.359375 185.6875 194.957031 187.355469 192.90625 187.722656 C 197.367188 192.257812 199.824219 191.652344 200.9375 193.054688 C 202.105469 194.523438 201.191406 198.398438 200.59375 200.945312 C 200.289062 201.613281 199.832031 202.152344 199.230469 202.570312 C 198.949219 202.777344 198.765625 203.050781 198.683594 203.390625 C 198.542969 203.988281 198.3125 204.78125 198.140625 205.367188 C 194.59375 205.296875 191.046875 205.261719 187.503906 205.257812 C 184.464844 205.257812 181.421875 205.285156 178.378906 205.34375 C 178.472656 205.175781 178.53125 204.996094 178.558594 204.808594 C 178.59375 204.191406 178.785156 203.625 179.132812 203.113281 C 179.171875 203.066406 179.21875 203.042969 179.28125 203.046875 C 179.339844 203.054688 179.386719 203.082031 179.414062 203.136719 C 179.5625 203.402344 179.769531 203.605469 180.042969 203.738281 C 180.078125 203.757812 180.109375 203.753906 180.140625 203.730469 C 180.171875 203.707031 180.183594 203.675781 180.175781 203.636719 C 179.757812 201.746094 179.710938 196.546875 180.476562 193.167969 C 181.265625 189.6875 181.640625 188.710938 181.996094 186.429688 C 182.308594 184.601562 182.75 182.808594 183.316406 181.042969 C 183.460938 180.613281 183.488281 180.175781 183.402344 179.730469 C 183.3125 179.289062 183.125 178.894531 182.828125 178.550781 C 182.011719 177.636719 181.566406 176.570312 181.492188 175.351562 C 181.492188 175.304688 181.511719 175.277344 181.554688 175.265625 C 181.597656 175.253906 181.628906 175.265625 181.652344 175.304688 C 182.203125 176.28125 182.921875 177.113281 183.8125 177.796875 C 184.046875 177.964844 184.246094 178.164062 184.414062 178.394531 C 184.585938 178.628906 184.714844 178.878906 184.800781 179.152344 C 184.890625 179.421875 184.9375 179.703125 184.9375 179.988281 C 184.9375 180.273438 184.894531 180.554688 184.804688 180.824219 C 184.167969 182.75 183.792969 184.925781 184.015625 185.6875 C 184.5625 185.238281 187.175781 185.734375 189.25 186.242188 C 190.851562 186.636719 192.4375 186.570312 194.003906 186.050781 C 195.996094 185.386719 198.265625 184.597656 199.554688 184.636719 C 198.65625 182.078125 199.328125 178.261719 200.992188 175.867188 C 201.011719 175.839844 201.03125 175.835938 201.058594 175.847656 C 201.085938 175.859375 201.09375 175.882812 201.085938 175.910156 C 199.976562 180.085938 200.152344 184.375 202.625 187.050781 C 207.492188 192.324219 210.125 191.585938 211.292969 193.058594 C 212.460938 194.53125 211.582031 198.34375 210.953125 200.949219 Z M 173.046875 184.269531 C 170.777344 183.339844 168.574219 182.273438 166.433594 181.078125 C 165.15625 182.78125 164.175781 185.257812 162.867188 186.972656 C 162.640625 187.265625 162.507812 187.59375 162.472656 187.960938 C 162.4375 188.328125 162.5 188.679688 162.667969 189.007812 C 164.207031 191.96875 166.496094 197.855469 166.578125 199.203125 C 166.671875 200.75 167.734375 200.980469 168.472656 201.492188 C 169.207031 202.007812 169.890625 202.464844 170.144531 201.816406 C 172.476562 201.570312 172.03125 197.742188 171.710938 197.15625 C 171.394531 196.566406 170.21875 196.484375 169.398438 197.144531 C 168.199219 195.210938 169.183594 190.820312 168.480469 189.84375 C 168.886719 187.769531 171.734375 186.074219 173.046875 184.269531 Z M 173.046875 184.269531 " fill-opacity="1" fill-rule="evenodd"/></g><g fill="#ffffff" fill-opacity="1"><g transform="translate(45.616316, 246.157527)"><g><path d="M 17.515625 -11.25 L 8.84375 -11.25 L 8.84375 -3.9375 L 17.109375 -3.9375 L 17.328125 -7 L 21.234375 -7 L 21.234375 0 L 0.984375 0 L 0.984375 -3.078125 L 3.703125 -3.609375 L 3.703125 -21.96875 L 0.984375 -22.5 L 0.984375 -25.59375 L 21.203125 -25.59375 L 21.203125 -18.578125 L 17.265625 -18.578125 L 17.03125 -21.640625 L 8.84375 -21.640625 L 8.84375 -15.203125 L 17.515625 -15.203125 Z M 17.515625 -11.25 "/></g></g></g><g fill="#ffffff" fill-opacity="1"><g transform="translate(75.700503, 246.157527)"><g><path d="M 0.984375 0 L 0.984375 -3.078125 L 3.703125 -3.609375 L 3.703125 -21.96875 L 0.984375 -22.5 L 0.984375 -25.59375 L 11.578125 -25.59375 L 11.578125 -22.5 L 8.84375 -21.96875 L 8.84375 -3.9375 L 16.0625 -3.9375 L 16.3125 -7.15625 L 20.234375 -7.15625 L 20.234375 0 Z M 0.984375 0 "/></g></g></g><g fill="#ffffff" fill-opacity="1"><g transform="translate(103.886252, 246.157527)"><g/></g></g><g fill="#ffffff" fill-opacity="1"><g transform="translate(119.80247, 246.157527)"><g><path d="M 27.140625 -25.59375 L 27.140625 -22.5 L 24.40625 -21.96875 L 24.40625 0 L 19.28125 0 L 8.953125 -17.234375 L 8.84375 -17.203125 L 8.84375 -3.609375 L 11.578125 -3.078125 L 11.578125 0 L 0.984375 0 L 0.984375 -3.078125 L 3.703125 -3.609375 L 3.703125 -21.96875 L 0.984375 -22.5 L 0.984375 -25.59375 L 8.84375 -25.59375 L 19.171875 -8.375 L 19.28125 -8.390625 L 19.28125 -21.96875 L 16.546875 -22.5 L 16.546875 -25.59375 Z M 27.140625 -25.59375 "/></g></g></g><g fill="#ffffff" fill-opacity="1"><g transform="translate(154.703062, 246.157527)"><g><path d="M 24.375 -12.609375 C 24.375 -8.859375 23.300781 -5.753906 21.15625 -3.296875 C 19.019531 -0.847656 16.21875 0.375 12.75 0.375 C 9.289062 0.375 6.492188 -0.847656 4.359375 -3.296875 C 2.234375 -5.753906 1.171875 -8.859375 1.171875 -12.609375 L 1.171875 -12.984375 C 1.171875 -16.710938 2.234375 -19.804688 4.359375 -22.265625 C 6.484375 -24.734375 9.273438 -25.96875 12.734375 -25.96875 C 16.203125 -25.96875 19.007812 -24.734375 21.15625 -22.265625 C 23.300781 -19.804688 24.375 -16.710938 24.375 -12.984375 Z M 19.265625 -13.03125 C 19.265625 -15.675781 18.710938 -17.820312 17.609375 -19.46875 C 16.515625 -21.125 14.890625 -21.953125 12.734375 -21.953125 C 10.578125 -21.953125 8.96875 -21.128906 7.90625 -19.484375 C 6.84375 -17.847656 6.3125 -15.695312 6.3125 -13.03125 L 6.3125 -12.609375 C 6.3125 -9.910156 6.847656 -7.738281 7.921875 -6.09375 C 8.992188 -4.445312 10.601562 -3.625 12.75 -3.625 C 14.914062 -3.625 16.539062 -4.445312 17.625 -6.09375 C 18.71875 -7.738281 19.265625 -9.910156 19.265625 -12.609375 Z M 19.265625 -13.03125 "/></g></g></g><g fill="#ffffff" fill-opacity="1"><g transform="translate(187.248181, 246.157527)"><g><path d="M 9.953125 -22.5 L 8 -22.15625 L 12.53125 -6.796875 L 12.84375 -5.390625 L 12.953125 -5.390625 L 13.25 -6.765625 L 17.8125 -22.15625 L 15.875 -22.5 L 15.875 -25.59375 L 25.21875 -25.59375 L 25.21875 -22.5 L 23.078125 -22.21875 L 15.546875 0 L 10.265625 0 L 2.703125 -22.21875 L 0.59375 -22.5 L 0.59375 -25.59375 L 9.953125 -25.59375 Z M 9.953125 -22.5 "/></g></g></g><g fill="#ffffff" fill-opacity="1"><g transform="translate(220.144861, 246.157527)"><g><path d="M 0.96875 -22.5 L 0.96875 -25.59375 L 11.5625 -25.59375 L 11.5625 -22.5 L 8.828125 -21.96875 L 8.828125 -3.609375 L 11.5625 -3.078125 L 11.5625 0 L 0.96875 0 L 0.96875 -3.078125 L 3.703125 -3.609375 L 3.703125 -21.96875 Z M 0.96875 -22.5 "/></g></g></g><g fill="#ffffff" fill-opacity="1"><g transform="translate(239.770058, 246.157527)"><g><path d="M 20.421875 -17.421875 L 16.578125 -17.421875 L 15.90625 -20.9375 C 15.457031 -21.21875 14.804688 -21.460938 13.953125 -21.671875 C 13.097656 -21.878906 12.191406 -21.984375 11.234375 -21.984375 C 9.828125 -21.984375 8.738281 -21.6875 7.96875 -21.09375 C 7.207031 -20.507812 6.828125 -19.75 6.828125 -18.8125 C 6.828125 -17.945312 7.226562 -17.234375 8.03125 -16.671875 C 8.832031 -16.117188 10.21875 -15.53125 12.1875 -14.90625 C 15.007812 -14.125 17.148438 -13.085938 18.609375 -11.796875 C 20.066406 -10.503906 20.796875 -8.8125 20.796875 -6.71875 C 20.796875 -4.519531 19.925781 -2.785156 18.1875 -1.515625 C 16.457031 -0.253906 14.175781 0.375 11.34375 0.375 C 9.3125 0.375 7.476562 0.0507812 5.84375 -0.59375 C 4.207031 -1.238281 2.847656 -2.128906 1.765625 -3.265625 L 1.765625 -8.609375 L 5.734375 -8.609375 L 6.28125 -4.96875 C 6.789062 -4.550781 7.488281 -4.203125 8.375 -3.921875 C 9.257812 -3.648438 10.25 -3.515625 11.34375 -3.515625 C 12.75 -3.515625 13.816406 -3.800781 14.546875 -4.375 C 15.273438 -4.945312 15.640625 -5.71875 15.640625 -6.6875 C 15.640625 -7.664062 15.289062 -8.453125 14.59375 -9.046875 C 13.894531 -9.648438 12.675781 -10.210938 10.9375 -10.734375 C 7.894531 -11.617188 5.59375 -12.664062 4.03125 -13.875 C 2.476562 -15.082031 1.703125 -16.734375 1.703125 -18.828125 C 1.703125 -20.898438 2.582031 -22.59375 4.34375 -23.90625 C 6.101562 -25.226562 8.3125 -25.910156 10.96875 -25.953125 C 12.9375 -25.953125 14.726562 -25.648438 16.34375 -25.046875 C 17.96875 -24.453125 19.328125 -23.65625 20.421875 -22.65625 Z M 20.421875 -17.421875 "/></g></g></g><g fill="#ffffff" fill-opacity="1"><g transform="translate(268.694083, 246.157527)"><g><path d="M 0.984375 -22.5 L 0.984375 -25.59375 L 11.578125 -25.59375 L 11.578125 -22.5 L 8.84375 -21.96875 L 8.84375 -14.59375 L 19.28125 -14.59375 L 19.28125 -21.96875 L 16.546875 -22.5 L 16.546875 -25.59375 L 27.140625 -25.59375 L 27.140625 -22.5 L 24.40625 -21.96875 L 24.40625 -3.609375 L 27.140625 -3.078125 L 27.140625 0 L 16.546875 0 L 16.546875 -3.078125 L 19.28125 -3.609375 L 19.28125 -10.640625 L 8.84375 -10.640625 L 8.84375 -3.609375 L 11.578125 -3.078125 L 11.578125 0 L 0.984375 0 L 0.984375 -3.078125 L 3.703125 -3.609375 L 3.703125 -21.96875 Z M 0.984375 -22.5 "/></g></g></g><g fill="#ffffff" fill-opacity="1"><g transform="translate(303.928654, 246.157527)"><g><path d="M 24.375 -12.609375 C 24.375 -8.859375 23.300781 -5.753906 21.15625 -3.296875 C 19.019531 -0.847656 16.21875 0.375 12.75 0.375 C 9.289062 0.375 6.492188 -0.847656 4.359375 -3.296875 C 2.234375 -5.753906 1.171875 -8.859375 1.171875 -12.609375 L 1.171875 -12.984375 C 1.171875 -16.710938 2.234375 -19.804688 4.359375 -22.265625 C 6.484375 -24.734375 9.273438 -25.96875 12.734375 -25.96875 C 16.203125 -25.96875 19.007812 -24.734375 21.15625 -22.265625 C 23.300781 -19.804688 24.375 -16.710938 24.375 -12.984375 Z M 19.265625 -13.03125 C 19.265625 -15.675781 18.710938 -17.820312 17.609375 -19.46875 C 16.515625 -21.125 14.890625 -21.953125 12.734375 -21.953125 C 10.578125 -21.953125 8.96875 -21.128906 7.90625 -19.484375 C 6.84375 -17.847656 6.3125 -15.695312 6.3125 -13.03125 L 6.3125 -12.609375 C 6.3125 -9.910156 6.847656 -7.738281 7.921875 -6.09375 C 8.992188 -4.445312 10.601562 -3.625 12.75 -3.625 C 14.914062 -3.625 16.539062 -4.445312 17.625 -6.09375 C 18.71875 -7.738281 19.265625 -9.910156 19.265625 -12.609375 Z M 19.265625 -13.03125 "/></g></g></g><g fill="#ffffff" fill-opacity="1"><g transform="translate(141.752084, 272.518929)"><g><path d="M 0.328125 -1.015625 L 1.234375 -1.203125 L 1.234375 -7.3125 L 0.328125 -7.484375 L 0.328125 -8.515625 L 7.09375 -8.515625 L 7.09375 -6.171875 L 5.796875 -6.171875 L 5.71875 -7.1875 L 2.9375 -7.1875 L 2.9375 -4.84375 L 5.921875 -4.84375 L 5.921875 -3.53125 L 2.9375 -3.53125 L 2.9375 -1.203125 L 3.84375 -1.015625 L 3.84375 0 L 0.328125 0 Z M 0.328125 -1.015625 "/></g></g></g><g fill="#ffffff" fill-opacity="1"><g transform="translate(150.602979, 272.518929)"><g><path d="M 4.15625 -8.515625 C 5.113281 -8.515625 5.867188 -8.289062 6.421875 -7.84375 C 6.972656 -7.40625 7.25 -6.796875 7.25 -6.015625 C 7.25 -5.585938 7.132812 -5.210938 6.90625 -4.890625 C 6.675781 -4.578125 6.335938 -4.320312 5.890625 -4.125 C 6.390625 -3.976562 6.75 -3.734375 6.96875 -3.390625 C 7.195312 -3.046875 7.3125 -2.617188 7.3125 -2.109375 L 7.3125 -1.671875 C 7.3125 -1.484375 7.347656 -1.335938 7.421875 -1.234375 C 7.492188 -1.140625 7.613281 -1.082031 7.78125 -1.0625 L 8 -1.03125 L 8 0 L 7.109375 0 C 6.554688 0 6.164062 -0.148438 5.9375 -0.453125 C 5.707031 -0.753906 5.59375 -1.140625 5.59375 -1.609375 L 5.59375 -2.09375 C 5.59375 -2.507812 5.484375 -2.832031 5.265625 -3.0625 C 5.046875 -3.300781 4.738281 -3.425781 4.34375 -3.4375 L 2.9375 -3.4375 L 2.9375 -1.203125 L 3.84375 -1.015625 L 3.84375 0 L 0.328125 0 L 0.328125 -1.015625 L 1.234375 -1.203125 L 1.234375 -7.3125 L 0.328125 -7.484375 L 0.328125 -8.515625 Z M 2.9375 -4.75 L 4.125 -4.75 C 4.59375 -4.75 4.945312 -4.847656 5.1875 -5.046875 C 5.425781 -5.253906 5.546875 -5.550781 5.546875 -5.9375 C 5.546875 -6.320312 5.425781 -6.625 5.1875 -6.84375 C 4.957031 -7.070312 4.613281 -7.1875 4.15625 -7.1875 L 2.9375 -7.1875 Z M 2.9375 -4.75 "/></g></g></g><g fill="#ffffff" fill-opacity="1"><g transform="translate(160.289304, 272.518929)"><g><path d="M 5.828125 -3.734375 L 2.9375 -3.734375 L 2.9375 -1.3125 L 5.6875 -1.3125 L 5.765625 -2.328125 L 7.0625 -2.328125 L 7.0625 0 L 0.328125 0 L 0.328125 -1.015625 L 1.234375 -1.203125 L 1.234375 -7.3125 L 0.328125 -7.484375 L 0.328125 -8.515625 L 7.046875 -8.515625 L 7.046875 -6.171875 L 5.734375 -6.171875 L 5.65625 -7.1875 L 2.9375 -7.1875 L 2.9375 -5.0625 L 5.828125 -5.0625 Z M 5.828125 -3.734375 "/></g></g></g><g fill="#ffffff" fill-opacity="1"><g transform="translate(169.391409, 272.518929)"><g><path d="M 6.796875 -5.796875 L 5.515625 -5.796875 L 5.28125 -6.953125 C 5.132812 -7.046875 4.921875 -7.128906 4.640625 -7.203125 C 4.359375 -7.273438 4.054688 -7.3125 3.734375 -7.3125 C 3.265625 -7.3125 2.898438 -7.210938 2.640625 -7.015625 C 2.390625 -6.816406 2.265625 -6.5625 2.265625 -6.25 C 2.265625 -5.96875 2.394531 -5.734375 2.65625 -5.546875 C 2.925781 -5.359375 3.390625 -5.160156 4.046875 -4.953125 C 4.984375 -4.691406 5.691406 -4.347656 6.171875 -3.921875 C 6.660156 -3.492188 6.90625 -2.929688 6.90625 -2.234375 C 6.90625 -1.503906 6.617188 -0.925781 6.046875 -0.5 C 5.472656 -0.0820312 4.710938 0.125 3.765625 0.125 C 3.097656 0.125 2.488281 0.0195312 1.9375 -0.1875 C 1.394531 -0.40625 0.941406 -0.707031 0.578125 -1.09375 L 0.578125 -2.859375 L 1.90625 -2.859375 L 2.09375 -1.65625 C 2.257812 -1.507812 2.488281 -1.390625 2.78125 -1.296875 C 3.070312 -1.210938 3.398438 -1.171875 3.765625 -1.171875 C 4.234375 -1.171875 4.585938 -1.265625 4.828125 -1.453125 C 5.078125 -1.640625 5.203125 -1.894531 5.203125 -2.21875 C 5.203125 -2.550781 5.082031 -2.816406 4.84375 -3.015625 C 4.613281 -3.210938 4.210938 -3.398438 3.640625 -3.578125 C 2.628906 -3.867188 1.863281 -4.210938 1.34375 -4.609375 C 0.820312 -5.015625 0.5625 -5.566406 0.5625 -6.265625 C 0.5625 -6.953125 0.851562 -7.515625 1.4375 -7.953125 C 2.019531 -8.390625 2.753906 -8.613281 3.640625 -8.625 C 4.296875 -8.625 4.890625 -8.523438 5.421875 -8.328125 C 5.960938 -8.128906 6.421875 -7.863281 6.796875 -7.53125 Z M 6.796875 -5.796875 "/></g></g></g><g fill="#ffffff" fill-opacity="1"><g transform="translate(178.107927, 272.518929)"><g><path d="M 0.328125 -7.484375 L 0.328125 -8.515625 L 3.84375 -8.515625 L 3.84375 -7.484375 L 2.9375 -7.3125 L 2.9375 -4.84375 L 6.40625 -4.84375 L 6.40625 -7.3125 L 5.5 -7.484375 L 5.5 -8.515625 L 9.015625 -8.515625 L 9.015625 -7.484375 L 8.109375 -7.3125 L 8.109375 -1.203125 L 9.015625 -1.015625 L 9.015625 0 L 5.5 0 L 5.5 -1.015625 L 6.40625 -1.203125 L 6.40625 -3.53125 L 2.9375 -3.53125 L 2.9375 -1.203125 L 3.84375 -1.015625 L 3.84375 0 L 0.328125 0 L 0.328125 -1.015625 L 1.234375 -1.203125 L 1.234375 -7.3125 Z M 0.328125 -7.484375 "/></g></g></g><g fill="#ffffff" fill-opacity="1"><g transform="translate(188.921803, 272.518929)"><g/></g></g><g fill="#ffffff" fill-opacity="1"><g transform="translate(193.31509, 272.518929)"><g><path d="M 8.53125 -6.296875 L 8.5 -6.296875 L 6.21875 0 L 5.078125 0 L 2.8125 -6.28125 L 2.78125 -6.265625 L 2.9375 -2.53125 L 2.9375 -1.203125 L 3.84375 -1.015625 L 3.84375 0 L 0.328125 0 L 0.328125 -1.015625 L 1.234375 -1.203125 L 1.234375 -7.3125 L 0.328125 -7.484375 L 0.328125 -8.515625 L 3.453125 -8.515625 L 5.625 -2.234375 L 5.65625 -2.234375 L 7.84375 -8.515625 L 11 -8.515625 L 11 -7.484375 L 10.078125 -7.3125 L 10.078125 -1.203125 L 11 -1.015625 L 11 0 L 7.46875 0 L 7.46875 -1.015625 L 8.375 -1.203125 L 8.375 -2.53125 Z M 8.53125 -6.296875 "/></g></g></g><g fill="#ffffff" fill-opacity="1"><g transform="translate(206.04521, 272.518929)"><g><path d="M 5.828125 -3.734375 L 2.9375 -3.734375 L 2.9375 -1.3125 L 5.6875 -1.3125 L 5.765625 -2.328125 L 7.0625 -2.328125 L 7.0625 0 L 0.328125 0 L 0.328125 -1.015625 L 1.234375 -1.203125 L 1.234375 -7.3125 L 0.328125 -7.484375 L 0.328125 -8.515625 L 7.046875 -8.515625 L 7.046875 -6.171875 L 5.734375 -6.171875 L 5.65625 -7.1875 L 2.9375 -7.1875 L 2.9375 -5.0625 L 5.828125 -5.0625 Z M 5.828125 -3.734375 "/></g></g></g><g fill="#ffffff" fill-opacity="1"><g transform="translate(215.147313, 272.518929)"><g><path d="M 0.234375 -1.015625 L 0.84375 -1.109375 L 3.4375 -8.515625 L 5.1875 -8.515625 L 7.75 -1.109375 L 8.359375 -1.015625 L 8.359375 0 L 5.46875 0 L 5.46875 -1.015625 L 6.046875 -1.125 L 5.6875 -2.296875 L 2.921875 -2.296875 L 2.546875 -1.125 L 3.140625 -1.015625 L 3.140625 0 L 0.234375 0 Z M 3.328125 -3.546875 L 5.28125 -3.546875 L 4.3125 -6.546875 L 4.28125 -6.546875 Z M 3.328125 -3.546875 "/></g></g></g><g fill="#ffffff" fill-opacity="1"><g transform="translate(225.201703, 272.518929)"><g><path d="M 7.8125 -8.515625 L 7.8125 -6.234375 L 6.515625 -6.234375 L 6.4375 -7.1875 L 4.875 -7.1875 L 4.875 -1.203125 L 5.78125 -1.015625 L 5.78125 0 L 2.25 0 L 2.25 -1.015625 L 3.171875 -1.203125 L 3.171875 -7.1875 L 1.609375 -7.1875 L 1.53125 -6.234375 L 0.234375 -6.234375 L 0.234375 -8.515625 Z M 7.8125 -8.515625 "/></g></g></g><g fill="#474647" fill-opacity="1"><g transform="translate(139.778974, 129.922425)"><g><path d="M 3.203125 -7.65625 L 2.203125 -7.09375 L 1.578125 -7.90625 C 1.367188 -7.96875 1.140625 -7.976562 0.890625 -7.9375 C 0.640625 -7.90625 0.378906 -7.8125 0.109375 -7.65625 C -0.460938 -7.332031 -0.785156 -6.867188 -0.859375 -6.265625 C -0.929688 -5.660156 -0.773438 -5.019531 -0.390625 -4.34375 L -0.25 -4.109375 C 0.132812 -3.429688 0.601562 -2.96875 1.15625 -2.71875 C 1.707031 -2.476562 2.265625 -2.515625 2.828125 -2.828125 C 3.085938 -2.984375 3.304688 -3.160156 3.484375 -3.359375 C 3.660156 -3.554688 3.773438 -3.757812 3.828125 -3.96875 L 3.4375 -4.921875 L 4.4375 -5.484375 L 5.1875 -4.171875 C 5.09375 -3.710938 4.890625 -3.269531 4.578125 -2.84375 C 4.265625 -2.425781 3.847656 -2.070312 3.328125 -1.78125 C 2.441406 -1.269531 1.539062 -1.160156 0.625 -1.453125 C -0.289062 -1.753906 -1.023438 -2.390625 -1.578125 -3.359375 L -1.703125 -3.578125 C -2.253906 -4.546875 -2.425781 -5.503906 -2.21875 -6.453125 C -2.007812 -7.398438 -1.457031 -8.128906 -0.5625 -8.640625 C -0.0390625 -8.929688 0.476562 -9.097656 1 -9.140625 C 1.519531 -9.179688 2.003906 -9.128906 2.453125 -8.984375 Z M 3.203125 -7.65625 "/></g></g></g><g fill="#474647" fill-opacity="1"><g transform="translate(149.112814, 124.837426)"><g><path d="M -0.15625 -0.921875 L 0.3125 -1.21875 L -0.09375 -8.265625 L 1.359375 -8.875 L 6.0625 -3.609375 L 6.59375 -3.734375 L 6.953125 -2.890625 L 4.546875 -1.890625 L 4.1875 -2.734375 L 4.640625 -3.03125 L 3.921875 -3.875 L 1.625 -2.921875 L 1.734375 -1.828125 L 2.25 -1.9375 L 2.609375 -1.09375 L 0.203125 -0.078125 Z M 1.53125 -4.109375 L 3.15625 -4.78125 L 1.328125 -6.953125 L 1.296875 -6.9375 Z M 1.53125 -4.109375 "/></g></g></g><g fill="#474647" fill-opacity="1"><g transform="translate(159.70185, 120.679196)"><g><path d="M 1.546875 -8.390625 C 2.390625 -8.617188 3.101562 -8.609375 3.6875 -8.359375 C 4.269531 -8.109375 4.65625 -7.644531 4.84375 -6.96875 C 4.945312 -6.601562 4.9375 -6.253906 4.8125 -5.921875 C 4.6875 -5.585938 4.457031 -5.28125 4.125 -5 C 4.59375 -4.988281 4.960938 -4.859375 5.234375 -4.609375 C 5.515625 -4.367188 5.710938 -4.03125 5.828125 -3.59375 L 5.9375 -3.203125 C 5.976562 -3.046875 6.039062 -2.929688 6.125 -2.859375 C 6.21875 -2.796875 6.347656 -2.773438 6.515625 -2.796875 L 6.6875 -2.8125 L 6.9375 -1.921875 L 6.171875 -1.71875 C 5.691406 -1.582031 5.316406 -1.613281 5.046875 -1.8125 C 4.773438 -2.019531 4.582031 -2.332031 4.46875 -2.75 L 4.359375 -3.171875 C 4.253906 -3.523438 4.078125 -3.773438 3.828125 -3.921875 C 3.585938 -4.078125 3.289062 -4.113281 2.9375 -4.03125 L 1.71875 -3.6875 L 2.265625 -1.734375 L 3.09375 -1.8125 L 3.34375 -0.921875 L 0.28125 -0.078125 L 0.03125 -0.96875 L 0.78125 -1.328125 L -0.6875 -6.640625 L -1.515625 -6.5625 L -1.765625 -7.46875 L -0.984375 -7.6875 Z M 1.40625 -4.828125 L 2.4375 -5.125 C 2.851562 -5.238281 3.132812 -5.410156 3.28125 -5.640625 C 3.4375 -5.867188 3.472656 -6.148438 3.390625 -6.484375 C 3.296875 -6.804688 3.117188 -7.039062 2.859375 -7.1875 C 2.597656 -7.34375 2.265625 -7.363281 1.859375 -7.25 L 0.8125 -6.953125 Z M 1.40625 -4.828125 "/></g></g></g><g fill="#474647" fill-opacity="1"><g transform="translate(170.387641, 117.926896)"><g><path d="M 6.953125 -8.75 L 7.09375 -7.828125 L 6.296875 -7.5625 L 7.234375 -1.046875 L 5.71875 -0.828125 L 1.90625 -5.484375 L 1.875 -5.484375 L 2.453125 -1.4375 L 3.3125 -1.40625 L 3.4375 -0.5 L 0.296875 -0.046875 L 0.171875 -0.953125 L 0.9375 -1.21875 L 0.15625 -6.671875 L -0.65625 -6.71875 L -0.796875 -7.640625 L 0 -7.75 L 1.515625 -7.96875 L 5.328125 -3.28125 L 5.359375 -3.3125 L 4.78125 -7.34375 L 3.953125 -7.375 L 3.8125 -8.296875 L 6.140625 -8.640625 Z M 6.953125 -8.75 "/></g></g></g><g fill="#474647" fill-opacity="1"><g transform="translate(182.328079, 116.539612)"><g><path d="M 0.0625 -6.75 L 0.03125 -7.6875 L 3.203125 -7.796875 L 3.234375 -6.859375 L 2.421875 -6.671875 L 2.609375 -1.171875 L 3.4375 -1.046875 L 3.46875 -0.125 L 0.296875 -0.015625 L 0.265625 -0.9375 L 1.078125 -1.109375 L 0.890625 -6.609375 Z M 0.0625 -6.75 "/></g></g></g><g fill="#474647" fill-opacity="1"><g transform="translate(189.808272, 116.38941)"><g><path d="M 6.90625 -4.625 L 5.765625 -4.703125 L 5.671875 -5.71875 C 5.523438 -5.882812 5.335938 -6.019531 5.109375 -6.125 C 4.890625 -6.226562 4.625 -6.289062 4.3125 -6.3125 C 3.65625 -6.363281 3.128906 -6.15625 2.734375 -5.6875 C 2.347656 -5.226562 2.128906 -4.609375 2.078125 -3.828125 L 2.0625 -3.5625 C 2.007812 -2.789062 2.144531 -2.148438 2.46875 -1.640625 C 2.800781 -1.128906 3.285156 -0.847656 3.921875 -0.796875 C 4.222656 -0.785156 4.5 -0.8125 4.75 -0.875 C 5.007812 -0.945312 5.21875 -1.054688 5.375 -1.203125 L 5.59375 -2.21875 L 6.734375 -2.140625 L 6.640625 -0.625 C 6.296875 -0.289062 5.878906 -0.0351562 5.390625 0.140625 C 4.898438 0.328125 4.359375 0.398438 3.765625 0.359375 C 2.753906 0.296875 1.941406 -0.113281 1.328125 -0.875 C 0.722656 -1.632812 0.457031 -2.566406 0.53125 -3.671875 L 0.546875 -3.921875 C 0.617188 -5.035156 1.003906 -5.925781 1.703125 -6.59375 C 2.398438 -7.269531 3.257812 -7.578125 4.28125 -7.515625 C 4.875 -7.472656 5.398438 -7.328125 5.859375 -7.078125 C 6.328125 -6.828125 6.707031 -6.515625 7 -6.140625 Z M 6.90625 -4.625 "/></g></g></g><g fill="#474647" fill-opacity="1"><g transform="translate(200.412911, 117.318521)"><g><path d="M 5.78125 -2.34375 L 3.21875 -2.828125 L 2.8125 -0.671875 L 5.25 -0.21875 L 5.484375 -1.109375 L 6.640625 -0.890625 L 6.25 1.171875 L 0.296875 0.046875 L 0.46875 -0.859375 L 1.296875 -0.859375 L 2.296875 -6.265625 L 1.53125 -6.578125 L 1.703125 -7.5 L 2.5 -7.34375 L 7.640625 -6.375 L 7.25 -4.296875 L 6.09375 -4.515625 L 6.1875 -5.4375 L 3.78125 -5.890625 L 3.421875 -3.984375 L 5.984375 -3.5 Z M 5.78125 -2.34375 "/></g></g></g><g fill="#474647" fill-opacity="1"><g transform="translate(210.731658, 119.452908)"><g><path d="M 5.859375 -6.1875 C 6.691406 -5.925781 7.285156 -5.53125 7.640625 -5 C 7.992188 -4.476562 8.066406 -3.882812 7.859375 -3.21875 C 7.742188 -2.851562 7.546875 -2.5625 7.265625 -2.34375 C 6.984375 -2.132812 6.617188 -2.003906 6.171875 -1.953125 C 6.566406 -1.691406 6.8125 -1.382812 6.90625 -1.03125 C 7.007812 -0.675781 6.992188 -0.28125 6.859375 0.15625 L 6.734375 0.515625 C 6.679688 0.679688 6.671875 0.816406 6.703125 0.921875 C 6.742188 1.035156 6.832031 1.128906 6.96875 1.203125 L 7.15625 1.28125 L 6.875 2.15625 L 6.109375 1.921875 C 5.628906 1.773438 5.332031 1.539062 5.21875 1.21875 C 5.113281 0.894531 5.125 0.53125 5.25 0.125 L 5.375 -0.28125 C 5.488281 -0.644531 5.484375 -0.953125 5.359375 -1.203125 C 5.234375 -1.460938 4.992188 -1.65625 4.640625 -1.78125 L 3.4375 -2.15625 L 2.84375 -0.234375 L 3.59375 0.171875 L 3.3125 1.046875 L 0.28125 0.09375 L 0.5625 -0.78125 L 1.390625 -0.703125 L 3.03125 -5.953125 L 2.296875 -6.328125 L 2.578125 -7.21875 L 3.359375 -6.984375 Z M 3.796875 -3.28125 L 4.828125 -2.96875 C 5.234375 -2.832031 5.566406 -2.820312 5.828125 -2.9375 C 6.085938 -3.050781 6.269531 -3.269531 6.375 -3.59375 C 6.476562 -3.925781 6.457031 -4.222656 6.3125 -4.484375 C 6.175781 -4.742188 5.910156 -4.9375 5.515625 -5.0625 L 4.46875 -5.390625 Z M 3.796875 -3.28125 "/></g></g></g><g fill="#474647" fill-opacity="1"><g transform="translate(221.254813, 123.063083)"><g><path d="M 2.9375 -6.0625 L 3.3125 -6.921875 L 6.234375 -5.671875 L 5.859375 -4.8125 L 5.03125 -4.984375 L 2.84375 0.0625 L 3.546875 0.53125 L 3.1875 1.375 L 0.265625 0.125 L 0.625 -0.71875 L 1.4375 -0.546875 L 3.625 -5.59375 Z M 2.9375 -6.0625 "/></g></g></g><g fill="#474647" fill-opacity="1"><g transform="translate(228.071495, 126.11105)"><g><path d="M 0.640625 -0.6875 L 1.15625 -0.5 L 6.453125 -5.171875 L 7.828125 -4.390625 L 6.5625 2.5625 L 7.015625 2.90625 L 6.5625 3.703125 L 4.28125 2.421875 L 4.734375 1.625 L 5.25 1.78125 L 5.46875 0.71875 L 3.296875 -0.5 L 2.5 0.234375 L 2.921875 0.59375 L 2.46875 1.390625 L 0.1875 0.109375 Z M 4.1875 -1.328125 L 5.71875 -0.46875 L 6.296875 -3.234375 L 6.265625 -3.25 Z M 4.1875 -1.328125 "/></g></g></g></svg>